<svg xmlns="http://www.w3.org/2000/svg" width="243" height="240" viewBox="0 0 243 240" fill="none">
    <path d="M65.4132 151.42C53.2189 161.148 44.7222 174.67 41.3091 189.78C41.3091 191.21 40.798 193.06 41.9904 193.986C43.1829 194.911 45.3974 193.986 46.8453 192.976C49.1812 191.245 51.3484 189.301 53.3185 187.172C58.9203 180.9 63.5944 173.876 67.2018 166.31C69.1512 163.078 70.3443 159.456 70.6939 155.71C70.8139 154.161 70.3259 152.625 69.3311 151.42C68.7922 150.911 68.0753 150.627 67.3296 150.627C66.5839 150.627 65.8669 150.911 65.328 151.42" fill="white"/>
    <path d="M43.4384 195.164C42.6758 195.159 41.933 194.924 41.309 194.491C40.6657 193.783 40.2304 192.916 40.0503 191.982C39.8702 191.047 39.952 190.083 40.287 189.191C43.6972 174.01 52.189 160.407 64.3911 150.579C64.7027 150.242 65.0855 149.977 65.5123 149.803C65.9392 149.628 66.3996 149.549 66.8611 149.57V149.57C68.0121 149.572 69.1149 150.026 69.9273 150.831C71.0902 152.187 71.6709 153.938 71.5456 155.711C71.2674 159.485 70.1008 163.143 68.1387 166.394C64.5069 174.089 59.774 181.228 54.0851 187.593C52.057 189.752 49.8332 191.723 47.4415 193.481C46.3225 194.449 44.9201 195.038 43.4384 195.164ZM66.3501 151.42C54.2427 161.095 45.856 174.573 42.5866 189.612C42.5866 191.294 42.5866 192.388 42.5866 192.808C42.5866 193.229 45.4825 192.219 46.0788 191.799C48.364 190.1 50.5009 188.215 52.4668 186.163C58.0133 179.946 62.6311 172.977 66.1797 165.469C68.0937 162.417 69.2333 158.954 69.5015 155.374C69.5875 154.167 69.224 152.97 68.4794 152.009C68.292 151.818 68.0667 151.667 67.8176 151.566C67.5684 151.464 67.3008 151.415 67.0314 151.42H66.3501Z" fill="#B8B8B8"/>
    <path d="M74.4418 132.072C73.1899 132.09 71.9549 132.361 70.8125 132.867C69.6702 133.373 68.6445 134.105 67.7983 135.016C65.9925 136.45 64.3631 138.087 62.9434 139.895C61.5146 141.715 60.8169 143.992 60.9844 146.289C61.2126 147.569 61.6137 148.814 62.1768 149.99C63.0286 151.925 64.3913 154.112 66.5207 154.028C67.3151 153.981 68.0812 153.719 68.7352 153.271C72.3882 151.406 75.3644 148.466 77.2525 144.858C78.1999 143.082 78.695 141.104 78.695 139.096C78.695 137.088 78.1999 135.11 77.2525 133.334C76.7374 132.273 75.819 131.457 74.6973 131.062" fill="white"/>
    <path d="M66.4358 155.122C64.3064 155.122 62.603 153.524 61.155 150.411C60.4459 149.177 59.929 147.844 59.6219 146.457C59.3598 143.865 60.1228 141.273 61.7512 139.223C63.2049 137.339 64.8932 135.643 66.7765 134.176C68.5369 132.413 70.8472 131.287 73.3348 130.979C73.3508 130.837 73.3997 130.701 73.4776 130.582C73.5555 130.462 73.6603 130.361 73.7839 130.288C73.9075 130.215 74.0466 130.171 74.1903 130.159C74.334 130.148 74.4785 130.169 74.6124 130.222C75.3233 130.425 75.9809 130.779 76.5397 131.258C77.0985 131.738 77.5453 132.331 77.849 132.998C78.8785 134.93 79.4165 137.081 79.4165 139.265C79.4165 141.449 78.8785 143.6 77.849 145.532C75.7689 149.172 72.6212 152.105 68.8206 153.944C68.0195 154.439 67.1182 154.755 66.1803 154.87L66.4358 155.122ZM73.7607 133.082C71.7757 133.389 69.9492 134.335 68.5651 135.774C66.7895 137.149 65.1881 138.731 63.7954 140.485C62.5091 142.11 61.8726 144.146 62.0068 146.205C62.2325 147.368 62.6045 148.498 63.114 149.57C64.1361 151.841 65.2433 153.019 66.4358 153.019C67.0231 152.883 67.5941 152.685 68.1392 152.43C71.7179 150.739 74.6892 148.009 76.6566 144.607C77.5154 142.969 77.9636 141.151 77.9636 139.307C77.9636 137.463 77.5154 135.645 76.6566 134.007C76.3841 133.489 76.0073 133.031 75.5493 132.661C75.4096 132.816 75.2392 132.94 75.0487 133.027C74.8583 133.114 74.6518 133.161 74.4421 133.166L73.7607 133.082Z" fill="#B8B8B8"/>
    <path d="M76.0596 133.669C76.0596 133.669 57.8325 155.877 77.5928 193.48C97.353 231.082 125.801 231.755 140.451 210.304C155.101 188.853 170.347 153.942 155.867 134.006C141.388 114.069 76.0596 133.669 76.0596 133.669Z" fill="white"/>
    <path d="M116.091 225.951H114.388C100.249 225.11 86.8766 213.838 76.6558 194.321C68.672 180.76 65.664 164.896 68.1384 149.4C69.1382 143.524 71.4673 137.945 74.9523 133.081C74.9523 133.081 74.9523 133.081 75.4634 133.081C78.1889 132.239 141.558 113.564 156.463 133.838C171.369 154.111 154.164 192.723 141.047 211.903C138.349 216.064 134.668 219.516 130.321 221.963C125.974 224.41 121.091 225.779 116.091 225.951V225.951ZM76.6558 134.595C73.5229 139.182 71.4042 144.37 70.4381 149.821C68.1568 164.826 71.1637 180.15 78.9555 193.228C88.8356 212.155 101.612 223.007 114.984 223.848C119.912 223.89 124.765 222.663 129.067 220.288C133.368 217.913 136.969 214.472 139.514 210.305C152.375 191.882 170.006 155.121 154.93 134.595C141.473 116.34 81.681 133.081 76.6558 134.595Z" fill="#B8B8B8"/>
    <path d="M46.9307 189.863C47.8273 186.239 49.0238 182.694 50.5079 179.264C53.3266 173.345 56.7211 167.71 60.6436 162.439" fill="white"/>
    <path d="M46.9306 190.872C46.6768 190.779 46.4626 190.604 46.3233 190.374C46.1839 190.145 46.1278 189.876 46.1641 189.611C47.1491 185.937 48.4016 182.338 49.9117 178.843C52.7099 172.895 56.1358 167.256 60.1325 162.019C60.3152 161.854 60.5485 161.754 60.7951 161.736C61.0418 161.717 61.2877 161.781 61.4935 161.916C61.6994 162.052 61.8533 162.251 61.9308 162.483C62.0083 162.715 62.0049 162.966 61.9212 163.196C58.0232 168.318 54.6561 173.813 51.8707 179.6C50.4197 182.985 49.224 186.472 48.2934 190.031C48.2635 190.177 48.2039 190.315 48.1182 190.437C48.0326 190.559 47.9226 190.662 47.7951 190.741C47.6676 190.82 47.5252 190.872 47.3766 190.895C47.2279 190.917 47.0762 190.91 46.9306 190.872V190.872Z" fill="#B8B8B8"/>
    <path d="M162.682 139.223C159.272 139.632 156.036 140.94 153.313 143.008C150.656 145.101 148.892 148.103 148.372 151.42C148.191 153.799 148.725 156.177 149.907 158.257C151.089 160.338 152.866 162.027 155.016 163.113C157.192 164.167 159.609 164.644 162.028 164.497C164.447 164.349 166.786 163.583 168.814 162.272C170.953 160.976 172.519 158.931 173.198 156.545C173.876 154.159 173.619 151.608 172.477 149.401C170.898 145.297 167.874 141.892 163.959 139.812" fill="white"/>
    <path d="M160.978 165.72C158.739 165.726 156.527 165.238 154.505 164.29C152.141 163.096 150.19 161.235 148.901 158.943C147.611 156.651 147.042 154.032 147.265 151.419C147.476 149.595 148.052 147.83 148.958 146.228C149.865 144.625 151.084 143.215 152.546 142.081C155.432 139.876 158.882 138.507 162.511 138.128C162.64 138.09 162.776 138.08 162.909 138.099C163.042 138.118 163.17 138.165 163.283 138.237C163.396 138.309 163.492 138.404 163.565 138.515C163.637 138.627 163.685 138.753 163.704 138.885H164.47C168.585 141.115 171.757 144.725 173.413 149.063C174.14 150.841 174.441 152.76 174.293 154.672C174.146 156.583 173.553 158.435 172.562 160.083C171.722 161.316 170.616 162.35 169.325 163.112C166.87 164.787 163.962 165.695 160.978 165.72V165.72ZM162.937 140.483C159.685 140.831 156.592 142.053 153.994 144.016C151.494 145.963 149.872 148.804 149.48 151.924C149.317 154.094 149.803 156.263 150.878 158.163C151.953 160.062 153.57 161.607 155.527 162.607C157.528 163.591 159.758 164.031 161.988 163.883C164.218 163.735 166.368 163.005 168.218 161.766C169.295 161.158 170.226 160.326 170.943 159.326C171.73 157.953 172.185 156.418 172.274 154.843C172.363 153.267 172.082 151.692 171.454 150.241C170.033 146.355 167.214 143.121 163.533 141.156C163.431 141.136 163.335 141.096 163.249 141.038C163.163 140.981 163.09 140.906 163.034 140.82C162.979 140.733 162.941 140.636 162.924 140.535C162.908 140.434 162.912 140.33 162.937 140.231V140.483Z" fill="#B8B8B8"/>
    <path d="M170.347 164.795C169.666 163.786 167.451 162.692 166.344 163.281C165.773 163.575 165.278 163.992 164.894 164.502C164.511 165.012 164.249 165.601 164.129 166.225C161.404 199.369 172.647 207.445 176.565 214.006C176.949 214.531 177.466 214.947 178.063 215.213C178.661 215.478 179.319 215.585 179.971 215.521C180.823 215.521 181.164 214.343 181.419 213.586C182.741 207.174 182.741 200.565 181.419 194.154C181.043 188.845 180.188 183.581 178.864 178.423C177.355 173.19 174.406 168.473 170.347 164.795" fill="white"/>
    <path d="M179.461 216.615C178.698 216.593 177.952 216.39 177.285 216.024C176.618 215.658 176.05 215.14 175.628 214.512C175.032 213.502 174.18 212.409 173.243 211.063C168.559 204.754 160.723 194.238 163.107 166.142C163.215 165.339 163.519 164.574 163.994 163.915C164.469 163.255 165.101 162.72 165.833 162.356C167.537 161.431 170.177 162.861 171.114 164.123C175.206 167.91 178.154 172.744 179.631 178.087C181.158 183.276 182.156 188.602 182.612 193.986C183.971 200.536 183.971 207.289 182.612 213.839C182.501 214.435 182.24 214.994 181.853 215.464C181.466 215.934 180.966 216.301 180.398 216.531L179.461 216.615ZM167.111 164.123C166.685 164.313 166.315 164.605 166.032 164.972C165.749 165.339 165.564 165.77 165.492 166.226C162.937 193.481 170.347 203.324 174.947 210.306C175.892 211.444 176.746 212.654 177.502 213.923C177.755 214.257 178.093 214.519 178.482 214.681C178.871 214.844 179.297 214.902 179.716 214.848C179.716 214.848 179.716 214.848 180.398 213.671C181.718 207.4 181.718 200.929 180.398 194.659C179.937 189.392 178.967 184.181 177.502 179.096C176.061 174.102 173.263 169.592 169.41 166.058V166.058C168.922 165.146 168.099 164.454 167.111 164.123V164.123Z" fill="#B8B8B8"/>
    <path d="M167.536 173.795C167.652 184.247 170.31 194.518 175.287 203.742Z" fill="white"/>
    <path d="M175.287 204.753C175.1 204.754 174.916 204.708 174.753 204.62C174.589 204.532 174.45 204.404 174.35 204.249C169.325 194.883 166.611 184.478 166.429 173.881C166.429 173.591 166.545 173.312 166.753 173.107C166.961 172.902 167.242 172.787 167.536 172.787V172.787C167.807 172.787 168.067 172.893 168.259 173.083C168.45 173.272 168.558 173.529 168.558 173.797C168.725 184.071 171.352 194.16 176.224 203.239C176.349 203.487 176.375 203.772 176.296 204.037C176.217 204.302 176.039 204.528 175.798 204.669L175.287 204.753Z" fill="#B8B8B8"/>
    <path d="M116.091 154.027C143.233 154.027 165.237 132.145 165.237 105.152C165.237 78.1594 143.233 56.2773 116.091 56.2773C88.9493 56.2773 66.9463 78.1594 66.9463 105.152C66.9463 132.145 88.9493 154.027 116.091 154.027Z" fill="white"/>
    <path d="M116.091 155.121C106.067 155.204 96.244 152.344 87.8681 146.905C79.4923 141.465 72.9414 133.69 69.0468 124.568C65.1521 115.445 64.0893 105.385 65.9931 95.6643C67.8968 85.9438 72.6815 77.001 79.7398 69.9706C86.7981 62.9403 95.8119 58.1393 105.637 56.1769C115.463 54.2146 125.657 55.1792 134.927 58.9485C144.196 62.7179 152.123 69.1219 157.701 77.3481C163.28 85.5742 166.258 95.2516 166.258 105.152C166.304 118.346 161.046 131.018 151.641 140.386C142.235 149.755 129.449 155.054 116.091 155.121ZM116.091 57.2868C106.488 57.2035 97.0768 59.9398 89.0512 65.1484C81.0255 70.357 74.7476 77.803 71.0141 86.5416C67.2806 95.2802 66.2599 104.917 68.0815 114.23C69.9031 123.542 74.4849 132.11 81.2454 138.847C88.0059 145.583 96.6403 150.184 106.053 152.065C115.465 153.946 125.231 153.023 134.112 149.413C142.992 145.803 150.587 139.668 155.931 131.788C161.275 123.908 164.129 114.637 164.129 105.152C164.174 92.5167 159.141 80.3796 150.135 71.4055C141.128 62.4314 128.885 57.3536 116.091 57.2868V57.2868Z" fill="#B8B8B8"/>
    <path d="M143.475 136.768C150.747 122.908 141.1 103.719 121.929 93.9084C102.758 84.0981 81.3227 87.3812 74.0514 101.242C66.7802 115.102 76.4268 134.291 95.5977 144.101C114.769 153.911 136.204 150.628 143.475 136.768Z" fill="#B8B8B8"/>
    <path d="M141.133 148.055C140.883 148.133 140.616 148.133 140.366 148.055C140.169 147.852 140.058 147.58 140.058 147.298C140.058 147.016 140.169 146.745 140.366 146.541C144.969 143.04 148.022 137.915 148.884 132.24C148.758 131.066 148.758 129.882 148.884 128.707V127.445C148.919 123.739 148.373 120.051 147.265 116.51C146.102 112.898 144.531 109.427 142.581 106.163C140.691 102.957 138.24 100.108 135.341 97.7503L129.635 92.9554C129.454 92.7433 129.355 92.4752 129.355 92.1983C129.355 91.9214 129.454 91.6533 129.635 91.4412C129.841 91.2458 130.115 91.1367 130.401 91.1367C130.687 91.1367 130.961 91.2458 131.168 91.4412L136.874 96.2361C139.931 98.5511 142.53 101.403 144.54 104.648C146.625 108.025 148.284 111.641 149.48 115.416C150.665 119.172 151.24 123.091 151.183 127.025C151.226 127.444 151.226 127.867 151.183 128.287C151.098 129.379 151.098 130.475 151.183 131.567C150.271 137.955 146.843 143.73 141.644 147.635C141.531 147.832 141.35 147.982 141.133 148.055Z" fill="#B8B8B8"/>
    <path d="M130.656 210.978H129.974C129.776 210.775 129.666 210.503 129.666 210.221C129.666 209.939 129.776 209.668 129.974 209.464C137.174 200.96 142.927 191.357 147.009 181.031C147.056 180.901 147.129 180.783 147.224 180.682C147.319 180.581 147.434 180.501 147.562 180.446C147.689 180.391 147.827 180.362 147.966 180.361C148.106 180.361 148.244 180.388 148.372 180.442C148.511 180.476 148.641 180.541 148.751 180.633C148.861 180.724 148.949 180.839 149.006 180.97C149.064 181.1 149.09 181.241 149.084 181.383C149.077 181.525 149.038 181.664 148.968 181.788C144.91 192.305 139.157 202.105 131.933 210.81C131.772 210.979 131.557 211.087 131.325 211.118C131.092 211.149 130.856 211.099 130.656 210.978Z" fill="#B8B8B8"/>
    <path d="M117.539 136.615C114.132 132.072 109.022 125.679 103.826 119.79C98.6306 113.902 93.5202 107.172 90.1133 102.966L91.1354 102.209C94.5423 106.752 99.6527 113.145 104.848 119.033C110.044 124.922 115.154 131.568 118.561 135.858L117.539 136.615Z" fill="white"/>
    <path d="M85.1738 127.108V126.183C91.8445 123.966 98.1993 120.913 104.082 117.098L106.467 115.752C109.108 114.153 111.833 112.892 114.559 111.546L120.265 108.77L120.862 109.947L114.899 112.807C112.174 114.069 109.448 115.415 106.808 116.929L104.508 118.275C98.4718 122.023 91.9741 124.991 85.1738 127.108V127.108Z" fill="white"/>
    <path d="M126.483 46.4362H125.972C125.716 46.3093 125.52 46.0895 125.424 45.8228C125.329 45.5562 125.342 45.2635 125.461 45.0061C127.343 41.1699 130.115 37.8265 133.552 35.248C135.404 33.6751 137.686 32.6798 140.111 32.3878C141.093 32.1759 142.109 32.1759 143.092 32.3878L144.114 31.6307C146.693 30.1186 149.631 29.3061 152.631 29.2753C156.033 29.0909 159.444 29.374 162.767 30.1165C163.038 30.1723 163.275 30.3321 163.427 30.5609C163.579 30.7896 163.632 31.0686 163.576 31.3363C163.519 31.604 163.358 31.8386 163.126 31.9885C162.894 32.1384 162.612 32.1912 162.341 32.1355C159.209 31.4662 156.001 31.2116 152.801 31.3784C150.192 31.3797 147.632 32.0772 145.391 33.3973V33.3973C146.087 33.8974 146.644 34.5629 147.01 35.3321C147.348 36.0128 147.524 36.761 147.524 37.5193C147.524 38.2775 147.348 39.0257 147.01 39.7064C146.727 40.2973 146.312 40.8167 145.795 41.2249C145.278 41.6331 144.674 41.9194 144.029 42.0618C143.622 42.1762 143.195 42.1987 142.779 42.1275C142.363 42.0564 141.968 41.8936 141.624 41.6511C141.281 41.4086 140.997 41.0927 140.794 40.7269C140.59 40.3611 140.473 39.9548 140.451 39.5382C140.152 37.6212 140.61 35.664 141.729 34.0703H140.536C138.521 34.352 136.629 35.1986 135.085 36.5098C131.911 38.9875 129.397 42.1927 127.76 45.8473C127.665 46.0887 127.479 46.2845 127.241 46.3942C127.003 46.5038 126.732 46.5188 126.483 46.4362V46.4362ZM143.517 35.1638C142.993 35.7583 142.601 36.4548 142.366 37.2082C142.132 37.9617 142.059 38.7555 142.155 39.5382C142.093 39.7869 142.093 40.0466 142.155 40.2953C142.402 40.3854 142.674 40.3854 142.921 40.2953C143.315 40.2982 143.702 40.1886 144.034 39.9797C144.367 39.7708 144.631 39.4714 144.795 39.1176C144.984 38.7232 145.083 38.2922 145.083 37.8557C145.083 37.4193 144.984 36.9883 144.795 36.5939C144.513 36.034 144.105 35.545 143.603 35.1638H143.517Z" fill="#B8B8B8"/>
    <path d="M75.208 46.8559C75.0012 46.8506 74.801 46.7834 74.6337 46.6632C74.4664 46.5431 74.34 46.3756 74.2711 46.183C72.5701 42.2798 70.5177 38.5354 68.1386 34.9947C67.9648 34.7961 67.8691 34.5423 67.8691 34.2797C67.8691 34.0171 67.9648 33.7633 68.1386 33.5647C68.3534 33.3866 68.6248 33.2891 68.9052 33.2891C69.1856 33.2891 69.457 33.3866 69.6717 33.5647C72.3381 37.2849 74.6748 41.2252 76.656 45.3417C76.7481 45.611 76.7384 45.9041 76.6288 46.167C76.5193 46.4298 76.3171 46.6446 76.0598 46.7718L75.208 46.8559Z" fill="#B8B8B8"/>
    <path d="M172.135 82.6077C171.887 82.691 171.617 82.691 171.369 82.6077C171.171 82.404 171.061 82.1328 171.061 81.8506C171.061 81.5684 171.171 81.2971 171.369 81.0935C175.826 76.6634 181.329 73.3969 187.381 71.5877C187.652 71.5343 187.932 71.5823 188.168 71.7223C188.405 71.8623 188.58 72.0842 188.659 72.3448C188.698 72.4718 188.712 72.6053 188.699 72.7375C188.686 72.8698 188.647 72.9982 188.584 73.1154C188.52 73.2326 188.434 73.3364 188.33 73.4207C188.226 73.505 188.106 73.5681 187.978 73.6066C182.427 75.1989 177.345 78.0838 173.157 82.0188L172.135 82.6077Z" fill="#B8B8B8"/>
    <path d="M88.1543 183.133V173.543C88.1543 172.955 88.1543 172.786 88.9209 172.87C89.6583 172.824 90.3979 172.824 91.1354 172.87C91.1354 172.87 91.7316 172.87 92.2426 173.375C93.1884 173.076 94.2029 173.06 95.158 173.329C96.113 173.599 96.9658 174.142 97.6086 174.889C98.517 174.293 99.5837 173.974 100.675 173.974C101.766 173.974 102.833 174.293 103.741 174.889C104.568 175.21 105.27 175.782 105.745 176.523C106.22 177.265 106.443 178.136 106.381 179.011V184.227C106.381 184.9 106.381 185.152 105.615 185.068H102.889V179.18C102.899 178.643 102.716 178.121 102.373 177.706C102.03 177.29 101.549 177.008 101.015 176.908C100.77 176.895 100.524 176.934 100.295 177.024C100.066 177.113 99.8593 177.251 99.6893 177.427C99.5193 177.602 99.3899 177.813 99.3101 178.043C99.2303 178.273 99.2019 178.517 99.2269 178.759C99.2269 180.61 99.2269 182.376 99.2269 184.227H95.5644V178.591C95.5453 178.098 95.3441 177.629 94.9989 177.272C94.6537 176.916 94.1883 176.697 93.6906 176.656C93.4555 176.602 93.211 176.604 92.9768 176.661C92.7425 176.718 92.5253 176.829 92.3427 176.985C92.1601 177.141 92.0173 177.337 91.9259 177.558C91.8345 177.778 91.7971 178.017 91.8168 178.254V183.386C91.8566 183.552 91.8566 183.725 91.8168 183.89L88.1543 183.133Z" fill="#B8B8B8"/>
    <path d="M112.344 175.562C113.361 175.05 114.535 174.93 115.637 175.225C116.739 175.521 117.69 176.21 118.306 177.16C119.142 178.265 119.594 179.608 119.594 180.988C119.594 182.368 119.142 183.71 118.306 184.815C117.449 185.633 116.304 186.089 115.112 186.089C113.92 186.089 112.775 185.633 111.918 184.815V188.853H108.767C108.767 188.853 108.767 188.264 108.767 188.012V177.497C108.809 176.881 108.809 176.262 108.767 175.646C108.767 174.889 108.767 174.721 109.704 174.805C110.64 174.889 110.896 174.805 111.492 174.805L112.344 175.562ZM111.662 180.357C111.655 181.026 111.892 181.675 112.33 182.185C112.768 182.695 113.378 183.032 114.047 183.133C115.325 183.133 116.262 182.208 116.262 180.693C116.289 180.042 116.067 179.404 115.642 178.906C115.216 178.408 114.617 178.085 113.962 178.001C113.649 177.989 113.337 178.041 113.047 178.156C112.756 178.271 112.494 178.446 112.276 178.669C112.059 178.891 111.892 179.157 111.786 179.448C111.68 179.739 111.638 180.049 111.662 180.357V180.357Z" fill="#B8B8B8"/>
    <path d="M117.369 174.301L115.496 173.796C115.496 173.796 115.496 173.291 115.496 173.039C115.496 172.786 115.496 172.618 115.496 172.366C115.449 171.862 115.449 171.355 115.496 170.852H117.114H119.243C119.201 171.215 119.201 171.582 119.243 171.945V173.543C119.202 173.738 119.202 173.938 119.243 174.132L117.369 174.301Z" fill="#B8B8B8"/>
    <path d="M122.65 183.301C124.524 183.301 124.183 183.301 124.183 185.32C124.183 187.339 124.183 186.666 122.821 186.498C120.351 186.498 120.265 186.498 120.606 183.638C120.606 183.638 120.606 183.133 121.202 183.133L122.65 183.301Z" fill="#B8B8B8"/>
</svg>